<svg xmlns="http://www.w3.org/2000/svg" viewBox="0 0 64 64" role="img" aria-label="BTC">
  <defs>
    <linearGradient id="g" x1="0" y1="0" x2="1" y2="1">
      <stop offset="0%" stop-color="#0ea5a6"/>
      <stop offset="100%" stop-color="#14b8a6"/>
    </linearGradient>
  </defs>
  <rect x="4" y="4" width="56" height="56" rx="16" fill="url(#g)"/>
  <circle cx="32" cy="32" r="18" fill="#ffffff" opacity="0.95"/>
  <path fill="#0f172a" d="M30 19h3v3.3c3.4.3 5.4 2.1 5.8 5.2h-4c-.3-1.4-1.4-2.1-3.3-2.1h-2.2v5.2h2.8c4.5 0 7 2.1 7 6 0 3.8-2.6 6-7 6.3V46h-3v-3h-4V19h4zm0 20.7h2.7c2.1 0 3.2-.9 3.2-2.5 0-1.6-1.1-2.4-3.1-2.4H30v4.9z"/>
</svg>
